<svg width="71.000000" height="78.000000" viewBox="0 0 71 78" fill="none" xmlns="http://www.w3.org/2000/svg" xmlns:xlink="http://www.w3.org/1999/xlink">
	<desc>
			Created with Pixso.
	</desc>
	<defs/>
	<path id="Vector" d="M51.35 72.96L70.71 72.96L65.74 58.05C64.44 54.15 61.12 51.26 57.08 50.51L43.8 48.02L43.8 44.94C46.98 42.65 49.23 39.15 49.88 35.12C52.85 34.61 55.12 32.04 55.12 28.93L55.12 20.12C55.12 9.03 46.09 0 35 0C23.9 0 14.87 9.03 14.87 20.12L14.87 28.93C14.87 32.04 17.13 34.62 20.09 35.13C20.75 39.16 23.01 42.67 26.19 44.96L26.19 48.02L12.91 50.51C8.87 51.27 5.55 54.16 4.25 58.05L-0.72 72.96L18.64 72.96L18.64 70.45L15.22 70.45L17.34 61.94L14.9 61.34L12.63 70.45L2.77 70.45L6.64 58.85C7.65 55.82 10.23 53.57 13.37 52.98L21.38 51.48L23.43 60.7C22.09 61.28 21.16 62.61 21.16 64.16L21.16 74.22C21.16 76.3 22.85 78 24.93 78L45.06 78C47.14 78 48.83 76.3 48.83 74.22L48.83 64.16C48.83 62.61 47.89 61.28 46.56 60.7L48.61 51.48L56.62 52.98C59.76 53.57 62.34 55.82 63.35 58.85L67.22 70.45L57.36 70.45L55.09 61.34L52.65 61.94L54.77 70.45L51.35 70.45L51.35 72.96ZM46.13 51.01L44.39 58.83L43.53 55.35L38.03 55.35L42.96 50.42L46.13 51.01ZM42.19 60.38L27.8 60.38L28.43 57.87L41.56 57.87L42.19 60.38ZM35 54.83L28.7 48.54L28.7 46.42C30.62 47.3 32.75 47.8 35 47.8C37.24 47.8 39.37 47.29 41.29 46.41L41.29 48.54L35 54.83ZM50.09 32.47L50.09 25.39C51.55 25.91 52.61 27.29 52.61 28.93C52.61 30.57 51.55 31.95 50.09 32.47ZM19.9 32.49C18.43 31.97 17.38 30.57 17.38 28.93C17.38 27.29 18.43 25.89 19.9 25.37L19.9 32.49ZM17.38 23.93L17.38 20.12C17.38 10.41 25.28 2.51 35 2.51C44.71 2.51 52.61 10.41 52.61 20.12L52.61 23.93C51.86 23.37 51 22.95 50.05 22.76C49.85 21.28 48.59 20.12 47.05 20.12C46.26 20.12 45.47 20.45 44.84 21.08C42.72 23.2 40.03 24.56 37.11 25L37.19 24.84C37.4 24.42 37.51 23.95 37.51 23.48L37.51 23.16C37.51 21.49 36.15 20.12 34.47 20.12C33.68 20.12 32.89 20.45 32.33 21.01C29.68 23.66 26.16 25.13 22.41 25.16L22.41 22.64L21.16 22.64C19.73 22.64 18.44 23.13 17.38 23.93ZM22.41 32.7L22.41 27.67C26.83 27.65 30.98 25.92 34.1 22.79C34.41 22.49 35 22.74 35 23.16L35 23.48C35 23.56 34.98 23.64 34.94 23.71L32.96 27.67L35 27.67C39.39 27.67 43.52 25.96 46.68 22.79C46.99 22.49 47.58 22.74 47.58 23.16L47.58 32.7C47.58 39.64 41.93 45.29 35 45.29C28.06 45.29 22.41 39.64 22.41 32.7ZM27.03 50.42L31.96 55.35L26.46 55.35L25.59 58.83L23.86 51.01L27.03 50.42ZM24.93 75.48C24.24 75.48 23.67 74.92 23.67 74.22L23.67 64.16C23.67 63.46 24.24 62.9 24.93 62.9L28.84 62.9C27.21 64.5 26.19 66.73 26.19 69.19C26.19 71.65 27.21 73.88 28.84 75.48L24.93 75.48ZM35 75.48C31.53 75.48 28.7 72.66 28.7 69.19C28.7 65.72 31.53 62.9 35 62.9C38.46 62.9 41.29 65.72 41.29 69.19C41.29 72.66 38.46 75.48 35 75.48ZM46.32 74.22C46.32 74.92 45.75 75.48 45.06 75.48L41.15 75.48C42.78 73.88 43.8 71.65 43.8 69.19C43.8 66.73 42.78 64.5 41.15 62.9L45.06 62.9C45.75 62.9 46.32 63.46 46.32 64.16L46.32 74.22Z" fill="#FFB400" fill-opacity="1.000000" fill-rule="nonzero"/>
</svg>
