<svg width="76.000000" height="75.000000" viewBox="0 0 76 75" fill="none" xmlns="http://www.w3.org/2000/svg" xmlns:xlink="http://www.w3.org/1999/xlink">
	<desc>
			Created with Pixso.
	</desc>
	<defs/>
	<path id="Vector" d="M72.66 6.49L72.24 6.49L72.55 6.18C73.48 5.25 73.48 3.73 72.55 2.8L70.11 0.36C69.18 -0.57 67.66 -0.57 66.73 0.36L60.61 6.49L3.33 6.49C1.49 6.49 0 7.99 0 9.83L0 56.06C0 58.31 1.83 60.14 4.08 60.14L30.45 60.14L30.45 68.02L25.08 68.02C23.65 68.02 22.48 69.18 22.48 70.62L22.48 71.73C22.48 73.16 23.65 74.33 25.08 74.33L50.91 74.33C52.34 74.33 53.51 73.16 53.51 71.73L53.51 70.62C53.51 69.18 52.34 68.02 50.91 68.02L45.54 68.02L45.54 60.14L57.44 60.14C58.06 60.14 58.55 59.64 58.55 59.03C58.55 58.41 58.06 57.92 57.44 57.92L4.08 57.92C3.05 57.92 2.22 57.08 2.22 56.06L2.22 52.77L73.77 52.77L73.77 56.06C73.77 57.08 72.94 57.92 71.91 57.92L62.64 57.92C62.02 57.92 61.52 58.41 61.52 59.03C61.52 59.64 62.02 60.14 62.64 60.14L71.91 60.14C74.16 60.14 76 58.31 76 56.06L76 9.83C76 7.99 74.5 6.49 72.66 6.49ZM50.91 70.25C51.11 70.25 51.28 70.41 51.28 70.62L51.28 71.73C51.28 71.93 51.11 72.1 50.91 72.1L25.08 72.1C24.88 72.1 24.71 71.93 24.71 71.73L24.71 70.62C24.71 70.41 24.88 70.25 25.08 70.25L50.91 70.25ZM32.67 60.14L43.32 60.14L43.32 68.02L32.67 68.02L32.67 60.14ZM68.31 1.94C68.37 1.87 68.47 1.87 68.54 1.94L70.97 4.37C71.04 4.44 71.04 4.54 70.97 4.6L68.65 6.93L65.98 4.26L68.31 1.94ZM64.41 5.84L67.07 8.5L66.3 9.28L63.63 6.61L64.41 5.84ZM62.06 8.19L64.72 10.85L51.55 24.03L48.88 21.36L62.06 8.19ZM60.41 18.37C61.92 18.37 63.16 19.6 63.16 21.11C63.16 22.63 61.92 23.86 60.41 23.86C58.89 23.86 57.66 22.63 57.66 21.11C57.66 21.09 57.67 21.08 57.67 21.06L60.36 18.37C60.37 18.37 60.39 18.37 60.41 18.37ZM49.62 25.24L46.32 26.59L47.67 23.29L49.62 25.24ZM73.77 50.54L2.22 50.54L2.22 9.83C2.22 9.21 2.72 8.72 3.33 8.72L58.38 8.72L56.68 10.41L18.85 10.41C18.23 10.41 17.73 10.91 17.73 11.53C17.73 12.14 18.23 12.64 18.85 12.64L54.46 12.64L46.6 20.49C46.38 20.72 46.21 20.98 46.09 21.27L43.6 27.36C43.37 27.92 43.5 28.55 43.93 28.98C44.22 29.27 44.6 29.42 44.99 29.42C45.18 29.42 45.37 29.38 45.55 29.31L51.64 26.82C51.93 26.71 52.18 26.54 52.4 26.32L55.79 22.94C56.52 24.78 58.31 26.08 60.41 26.08C63.15 26.08 65.38 23.85 65.38 21.11C65.38 19.02 64.08 17.22 62.24 16.49L66.09 12.64L69.84 12.64L69.84 46.62L69.25 46.62L65.22 39.63C64.91 39.1 64.23 38.91 63.7 39.22C63.17 39.53 62.98 40.21 63.29 40.74L66.68 46.62L51.13 46.62L49.46 43.73L57.24 30.26L60.69 36.24C61 36.77 61.68 36.96 62.21 36.65C62.75 36.34 62.93 35.66 62.62 35.13L58.94 28.75C58.58 28.13 57.95 27.77 57.24 27.77C56.53 27.77 55.9 28.13 55.54 28.75L48.18 41.5L38.73 25.13C38.37 24.52 37.74 24.15 37.03 24.15C36.32 24.15 35.69 24.52 35.33 25.13L32.82 29.48L32.82 17.55C32.82 16.12 31.66 14.95 30.23 14.95L11.13 14.95C9.7 14.95 8.53 16.12 8.53 17.55L8.53 41.89C8.53 42.92 9.36 43.75 10.39 43.75L24.59 43.75L22.93 46.62L6.15 46.62L6.15 12.64L13.65 12.64C14.27 12.64 14.76 12.14 14.76 11.53C14.76 10.91 14.27 10.41 13.65 10.41L5.77 10.41C4.75 10.41 3.92 11.25 3.92 12.27L3.92 46.99C3.92 48.01 4.75 48.84 5.77 48.84L70.22 48.84C71.24 48.84 72.07 48.01 72.07 46.99L72.07 12.27C72.07 11.25 71.24 10.41 70.22 10.41L68.31 10.41L70.01 8.72L72.66 8.72C73.27 8.72 73.77 9.21 73.77 9.83L73.77 50.54ZM30.6 23.71L30.6 41.52L10.76 41.52L10.76 23.71L30.6 23.71ZM10.76 21.49L10.76 17.55C10.76 17.34 10.92 17.18 11.13 17.18L30.23 17.18C30.43 17.18 30.6 17.34 30.6 17.55L30.6 21.49L10.76 21.49ZM27.16 43.75L30.97 43.75C31.99 43.75 32.82 42.92 32.82 41.89L32.82 39.53C33.1 39.67 33.41 39.74 33.74 39.74C34.5 39.74 35.18 39.35 35.56 38.69L37.45 35.41C37.51 35.31 37.6 35.29 37.66 35.29C37.72 35.29 37.81 35.31 37.87 35.41L39.04 37.43C39.42 38.09 40.1 38.48 40.86 38.48C41.62 38.48 42.3 38.09 42.68 37.43L42.97 36.93L48.56 46.62L25.5 46.62L27.16 43.75ZM32.82 35.81L32.82 33.94L37.03 26.65L41.68 34.7L40.86 36.13L39.8 34.29C39.35 33.52 38.55 33.06 37.66 33.06C36.77 33.06 35.97 33.52 35.52 34.29L33.74 37.39L32.82 35.81Z" fill="#FFB400" fill-opacity="1.000000" fill-rule="nonzero"/>
</svg>
